{
  "accessors": [
    {
      "bufferView": 3,
      "componentType": 5126,
      "count": 688,
      "max": [
        0.23101559281349182,
        0.2015770971775055,
        1.7097759246826172
      ],
      "min": [
        -0.25290006399154663,
        -0.24942238628864288,
        -0.01619121991097927
      ],
      "type": "VEC3"
    },
    {
      "bufferView": 3,
      "byteOffset": 8256,
      "componentType": 5126,
      "count": 688,
      "max": [
        0.9974735975265503,
        0.996581494808197,
        0.9250465035438538
      ],
      "min": [
        -0.996102511882782,
        -0.999661922454834,
        -0.9209076762199402
      ],
      "type": "VEC3"
    },
    {
      "bufferView": 2,
      "componentType": 5126,
      "count": 688,
      "max": [
        1.0,
        1.9955415725708008
      ],
      "min": [
        0.0,
        1.342393159866333
      ],
      "type": "VEC2"
    },
    {
      "bufferView": 1,
      "componentType": 5125,
      "count": 1824,
      "type": "SCALAR"
    },
    {
      "bufferView": 5,
      "componentType": 5126,
      "count": 18,
      "max": [
        1.0,
        0.999178409576416,
        0.04287513345479965,
        0.0,
        0.9995242357254028,
        1.0,
        1.0000003576278687,
        0.0,
        0.09029527753591537,
        1.0000004768371582,
        1.0,
        0.0,
        0.35197117924690247,
        1.3689006567001343,
        0.45033156871795654,
        1.0
      ],
      "min": [
        -1.0,
        -0.9995303153991699,
        -0.19187846779823303,
        0.0,
        -0.999210774898529,
        -0.8507967591285706,
        -0.9987252354621887,
        0.0,
        -0.21159882843494415,
        -0.9991883039474487,
        -0.3407125174999237,
        0.0,
        -0.23928304016590118,
        -1.513537883758545,
        -1.3865635395050049,
        1.0
      ],
      "type": "MAT4"
    },
    {
      "bufferView": 0,
      "componentType": 5123,
      "count": 688,
      "type": "VEC4"
    },
    {
      "bufferView": 4,
      "componentType": 5126,
      "count": 688,
      "max": [
        1.0,
        0.0,
        0.0,
        0.0
      ],
      "min": [
        1.0,
        0.0,
        0.0,
        0.0
      ],
      "type": "VEC4"
    }
  ],
  "asset": {
    "extras": {
      "author": "deankagura (https://sketchfab.com/deankagura)",
      "license": "CC-BY-4.0 (http://creativecommons.org/licenses/by/4.0/)",
      "source": "https://sketchfab.com/3d-models/harry-mason-8e7c5249891e4520b9bc04cb2f8fb255",
      "title": "Harry Mason"
    },
    "generator": "Sketchfab-15.49.0",
    "version": "2.0"
  },
  "bufferViews": [
    {
      "buffer": 0,
      "byteLength": 5504,
      "byteStride": 8,
      "name": "shortBufferViews",
      "target": 34962
    },
    {
      "buffer": 0,
      "byteLength": 7296,
      "byteOffset": 5504,
      "name": "floatBufferViews",
      "target": 34963
    },
    {
      "buffer": 0,
      "byteLength": 5504,
      "byteOffset": 12800,
      "byteStride": 8,
      "name": "floatBufferViews",
      "target": 34962
    },
    {
      "buffer": 0,
      "byteLength": 16512,
      "byteOffset": 18304,
      "byteStride": 12,
      "name": "floatBufferViews",
      "target": 34962
    },
    {
      "buffer": 0,
      "byteLength": 11008,
      "byteOffset": 34816,
      "byteStride": 16,
      "name": "floatBufferViews",
      "target": 34962
    },
    {
      "buffer": 0,
      "byteLength": 1152,
      "byteOffset": 45824,
      "name": "floatBufferViews"
    }
  ],
  "buffers": [
    {
      "byteLength": 46976,
      "uri": "scene.bin"
    }
  ],
  "images": [
    {
      "uri": "textures/HERO-material_baseColor.png"
    }
  ],
  "materials": [
    {
      "doubleSided": true,
      "name": "HERO-material",
      "pbrMetallicRoughness": {
        "baseColorTexture": {
          "index": 0
        },
        "metallicFactor": 0.0,
        "roughnessFactor": 0.9577051494623774
      }
    }
  ],
  "meshes": [
    {
      "name": "HERO_HERO-material_0",
      "primitives": [
        {
          "attributes": {
            "JOINTS_0": 5,
            "NORMAL": 1,
            "POSITION": 0,
            "TEXCOORD_0": 2,
            "WEIGHTS_0": 6
          },
          "indices": 3,
          "material": 0,
          "mode": 4
        }
      ]
    }
  ],
  "nodes": [
    {
      "children": [
        1
      ],
      "matrix": [
        1.0,
        0.0,
        0.0,
        0.0,
        0.0,
        2.220446049250313e-16,
        -1.0,
        0.0,
        0.0,
        1.0,
        2.220446049250313e-16,
        0.0,
        0.0,
        0.0,
        0.0,
        1.0
      ],
      "name": "Sketchfab_model"
    },
    {
      "children": [
        2
      ],
      "matrix": [
        0.009999999776482582,
        0.0,
        0.0,
        0.0,
        0.0,
        0.0,
        0.009999999776482582,
        0.0,
        0.0,
        -0.009999999776482582,
        0.0,
        0.0,
        0.0,
        0.0,
        0.0,
        1.0
      ],
      "name": "Harry.fbx"
    },
    {
      "children": [
        3
      ],
      "name": "RootNode"
    },
    {
      "children": [
        4,
        6,
        5
      ],
      "name": "Object_3"
    },
    {
      "children": [
        7
      ],
      "name": "_rootJoint"
    },
    {
      "matrix": [
        0.9999999999999999,
        -1.6543612251060553e-24,
        -8.564052269643886e-24,
        0.0,
        1.6543612251060553e-24,
        0.9999999999999999,
        0.0,
        0.0,
        8.564052269643886e-24,
        -1.4168036004680355e-47,
        0.9999999999999999,
        0.0,
        0.0,
        -6.938893903907228e-18,
        2.220446049250313e-16,
        1.0
      ],
      "name": "Object_5"
    },
    {
      "mesh": 0,
      "name": "Object_6",
      "skin": 0
    },
    {
      "children": [
        8,
        18,
        21
      ],
      "name": "hips_016",
      "rotation": [
        -7.55782192385368e-09,
        0.7071072459220886,
        0.7071062922477722,
        1.3767899531558214e-07
      ],
      "scale": [
        1.0,
        0.9999997019767761,
        0.9999998807907104
      ],
      "translation": [
        0.0,
        -0.032048940658569336,
        0.9141113758087158
      ]
    },
    {
      "children": [
        9,
        10,
        14
      ],
      "name": "chest_09",
      "rotation": [
        -1.159295152319828e-06,
        -2.618444057134184e-07,
        2.61844775195641e-07,
        1.0
      ],
      "scale": [
        1.0,
        0.9999992847442627,
        0.9999996423721313
      ],
      "translation": [
        5.684341886080802e-14,
        0.1673041582107544,
        2.2351741790771484e-08
      ]
    },
    {
      "name": "head_00",
      "rotation": [
        8.929748105401814e-07,
        3.6026605698680214e-07,
        -3.598265720938798e-07,
        1.0
      ],
      "scale": [
        1.0,
        0.9999990463256836,
        0.9999994039535522
      ],
      "translation": [
        0.00734582869336009,
        0.4321213960647583,
        -0.002041015774011612
      ]
    },
    {
      "children": [
        11
      ],
      "name": "shoulder_left_04",
      "rotation": [
        -0.5124896168708801,
        -0.4928758144378662,
        -0.49257537722587585,
        0.5017940998077393
      ],
      "scale": [
        0.9999999403953552,
        0.9999990463256836,
        0.9999997019767761
      ],
      "translation": [
        0.052979227155447006,
        0.30451273918151855,
        0.009528659284114838
      ]
    },
    {
      "children": [
        12
      ],
      "name": "arm_left_03",
      "rotation": [
        -0.5264189839363098,
        0.5169398784637451,
        -0.3969143331050873,
        0.5459992289543152
      ],
      "scale": [
        1.0000005960464478,
        0.9999997019767761,
        0.9999986886978149
      ],
      "translation": [
        2.7939677238464355e-09,
        0.11218711733818054,
        -2.220446049250313e-16
      ]
    },
    {
      "children": [
        13
      ],
      "name": "forearm_left_02",
      "rotation": [
        -0.13062505424022675,
        0.10842586308717728,
        -0.09105158597230911,
        0.9812698364257813
      ],
      "scale": [
        1.0000003576278687,
        0.9999993443489075,
        0.9999992847442627
      ],
      "translation": [
        -5.551115123125783e-17,
        0.20831811428070068,
        -1.3877787807814457e-17
      ]
    },
    {
      "name": "hand_left_01",
      "rotation": [
        0.18261657655239105,
        -0.039133429527282715,
        0.05763226002454758,
        0.9807132482528687
      ],
      "scale": [
        1.0000003576278687,
        0.999999463558197,
        0.9999989867210388
      ],
      "translation": [
        2.9802322387695313e-08,
        0.25639140605926514,
        8.940696716308594e-08
      ]
    },
    {
      "children": [
        15
      ],
      "name": "shoulder_right_08",
      "rotation": [
        -0.48062726855278015,
        0.5087088346481323,
        0.507958710193634,
        0.502186119556427
      ],
      "scale": [
        1.0,
        0.9999987483024597,
        0.9999994039535522
      ],
      "translation": [
        -0.0431676022708416,
        0.304512619972229,
        0.00952872447669506
      ]
    },
    {
      "children": [
        16
      ],
      "name": "arm_right_07",
      "rotation": [
        0.5149099230766296,
        0.5195383429527283,
        -0.465495765209198,
        -0.4982583522796631
      ],
      "scale": [
        1.0000004768371582,
        0.9999995231628418,
        0.9999983310699463
      ],
      "translation": [
        -2.2351741790771484e-08,
        0.11219895631074905,
        1.1920928955078125e-07
      ]
    },
    {
      "children": [
        17
      ],
      "name": "forearm_right_06",
      "rotation": [
        -0.08065739274024963,
        -0.04011933505535126,
        0.041900426149368286,
        0.9950523376464844
      ],
      "scale": [
        1.0,
        0.9999996423721313,
        0.9999995827674866
      ],
      "translation": [
        2.9802322387695313e-08,
        0.20831787586212158,
        -1.4901161193847656e-08
      ]
    },
    {
      "name": "hand_right_05",
      "rotation": [
        0.035907596349716187,
        0.01347156148403883,
        -0.021152617409825325,
        0.999040424823761
      ],
      "scale": [
        0.9999997615814209,
        0.9999997019767761,
        0.9999995231628418
      ],
      "translation": [
        -1.3877787807814457e-17,
        0.25639116764068604,
        5.960464477539063e-08
      ]
    },
    {
      "children": [
        19
      ],
      "name": "leg_left_012",
      "rotation": [
        0.9992830157279968,
        0.020058905705809593,
        -0.021924110129475594,
        0.02346579171717167
      ],
      "scale": [
        1.0000016689300537,
        0.9999991655349731,
        1.0000017881393433
      ],
      "translation": [
        0.06557940691709518,
        -0.007993102073669434,
        0.008163578808307648
      ]
    },
    {
      "children": [
        20
      ],
      "name": "knee_left_011",
      "rotation": [
        -0.08595971018075943,
        0.023732516914606094,
        0.019722523167729378,
        0.9958206415176392
      ],
      "scale": [
        1.0000029802322388,
        0.9999992251396179,
        1.0000039339065552
      ],
      "translation": [
        -2.9802322387695313e-08,
        0.36856263875961304,
        -3.166496753692627e-08
      ]
    },
    {
      "name": "foot_left_010",
      "rotation": [
        0.5536894202232361,
        0.008044276386499405,
        -0.03621917590498924,
        0.8318963050842285
      ],
      "scale": [
        1.0000028610229492,
        0.9999966621398926,
        1.0000066757202148
      ],
      "translation": [
        -3.650784492492676e-07,
        0.4338459074497223,
        -4.6938657760620117e-07
      ]
    },
    {
      "children": [
        22
      ],
      "name": "leg_right_015",
      "rotation": [
        0.9994162917137146,
        -0.023013880476355553,
        0.023680690675973892,
        0.008754401467740536
      ],
      "scale": [
        1.000001311302185,
        0.9999996423721313,
        0.9999998211860657
      ],
      "translation": [
        -0.06257666647434235,
        -0.008918285369873047,
        0.011216945946216583
      ]
    },
    {
      "children": [
        23
      ],
      "name": "knee_right_014",
      "rotation": [
        -0.07875046133995056,
        -0.015764880925416946,
        -0.01498382817953825,
        0.9966570734977722
      ],
      "scale": [
        1.0000027418136597,
        1.0,
        1.0000001192092896
      ],
      "translation": [
        2.9802322387695313e-08,
        0.36856287717819214,
        3.725290298461914e-08
      ]
    },
    {
      "name": "foot_right_013",
      "rotation": [
        0.5773289799690247,
        -0.05521530285477638,
        0.1350965052843094,
        0.8033627271652222
      ],
      "scale": [
        1.0000029802322388,
        1.0000001192092896,
        1.0000003576278687
      ],
      "translation": [
        1.1175870895385742e-07,
        0.43384629487991333,
        2.9802322387695313e-08
      ]
    }
  ],
  "samplers": [
    {
      "magFilter": 9729,
      "minFilter": 9987,
      "wrapS": 10497,
      "wrapT": 10497
    }
  ],
  "scene": 0,
  "scenes": [
    {
      "name": "Sketchfab_Scene",
      "nodes": [
        0
      ]
    }
  ],
  "skins": [
    {
      "inverseBindMatrices": 4,
      "joints": [
        4,
        7,
        8,
        9,
        10,
        11,
        12,
        13,
        14,
        15,
        16,
        17,
        18,
        19,
        20,
        21,
        22,
        23
      ],
      "skeleton": 4
    }
  ],
  "textures": [
    {
      "sampler": 0,
      "source": 0
    }
  ]
}
